<svg width="211" height="84" viewBox="0 0 211 84" fill="none" xmlns="http://www.w3.org/2000/svg">
<g filter="url(#filter0_ddddii)">
<path d="M193 60.5556C193 63.3268 190.709 65.5714 187.874 65.5714H20.1324C17.2995 65.5714 15 63.3268 15 60.5556V20.5561C15 17.7862 17.2995 15.5337 20.1324 15.5337H187.873C190.709 15.5337 192.999 17.7862 192.999 20.5561L193 60.5556Z" fill="url(#paint0_linear)"/>
</g>
<path d="M54.1707 40.2719C54.132 36.082 57.6894 34.0436 57.852 33.9487C55.8374 31.0848 52.7147 30.6935 51.6174 30.6623C48.9947 30.3932 46.4507 32.1924 45.1147 32.1924C43.752 32.1924 41.6947 30.6883 39.4774 30.7325C36.624 30.7754 33.9547 32.3861 32.4907 34.8873C29.4694 39.9872 31.7227 47.4817 34.6174 51.604C36.0654 53.6229 37.7574 55.8771 39.972 55.7978C42.1387 55.7107 42.948 54.451 45.5627 54.451C48.1534 54.451 48.9134 55.7978 51.172 55.7471C53.4974 55.7107 54.9614 53.7191 56.3587 51.682C58.032 49.368 58.704 47.0891 58.7307 46.9721C58.676 46.9539 54.2147 45.2938 54.1707 40.2719Z" fill="#5E6775"/>
<path d="M49.904 27.9505C51.0694 26.5296 51.8667 24.5965 51.6454 22.6348C49.9587 22.7076 47.8494 23.7723 46.6347 25.162C45.56 26.3866 44.6 28.3938 44.848 30.2814C46.7427 30.4192 48.688 29.3493 49.904 27.9505Z" fill="#5E6775"/>
<path d="M85.5266 55.5079H82.4986L80.84 50.4262H75.0746L73.4946 55.5079H70.5466L76.2586 38.2075H79.7866L85.5266 55.5079ZM80.34 48.2942L78.84 43.7767C78.6813 43.3152 78.384 42.2284 77.9453 40.5176H77.892C77.7173 41.2534 77.436 42.3402 77.0493 43.7767L75.576 48.2942H80.34Z" fill="#5E6775"/>
<path d="M100.216 49.117C100.216 51.2386 99.628 52.9156 98.452 54.1467C97.3987 55.2426 96.0907 55.7899 94.5293 55.7899C92.844 55.7899 91.6333 55.1997 90.896 54.0193H90.8427V60.5908H88V47.1397C88 45.8059 87.964 44.437 87.8947 43.033H90.3947L90.5533 45.0103H90.6067C91.5547 43.5205 92.9933 42.7769 94.924 42.7769C96.4333 42.7769 97.6933 43.358 98.7013 44.5215C99.712 45.6863 100.216 47.2177 100.216 49.117ZM97.32 49.2184C97.32 48.0042 97.04 47.0032 96.4773 46.2154C95.8627 45.3938 95.0373 44.983 94.0027 44.983C93.3013 44.983 92.664 45.2118 92.0947 45.6629C91.524 46.1179 91.1506 46.712 90.976 47.4478C90.888 47.791 90.844 48.0718 90.844 48.2928V50.3728C90.844 51.2802 91.1293 52.0459 91.7 52.6712C92.2707 53.2965 93.012 53.6085 93.924 53.6085C94.9947 53.6085 95.828 53.2055 96.424 52.4021C97.0213 51.5974 97.32 50.5366 97.32 49.2184Z" fill="#5E6775"/>
<path d="M114.932 49.117C114.932 51.2386 114.344 52.9156 113.167 54.1467C112.115 55.2426 110.807 55.7899 109.245 55.7899C107.56 55.7899 106.349 55.1997 105.613 54.0193H105.56V60.5908H102.717V47.1397C102.717 45.8059 102.681 44.437 102.612 43.033H105.112L105.271 45.0103H105.324C106.271 43.5205 107.709 42.7769 109.641 42.7769C111.149 42.7769 112.409 43.358 113.42 44.5215C114.427 45.6863 114.932 47.2177 114.932 49.117ZM112.036 49.2184C112.036 48.0042 111.755 47.0032 111.192 46.2154C110.577 45.3938 109.755 44.983 108.719 44.983C108.016 44.983 107.38 45.2118 106.809 45.6629C106.239 46.1179 105.867 46.712 105.692 47.4478C105.605 47.791 105.56 48.0718 105.56 48.2928V50.3728C105.56 51.2802 105.845 52.0459 106.413 52.6712C106.984 53.2952 107.725 53.6085 108.64 53.6085C109.711 53.6085 110.544 53.2055 111.14 52.4021C111.737 51.5974 112.036 50.5366 112.036 49.2184Z" fill="#5E6775"/>
<path d="M131.385 50.6562C131.385 52.1278 130.861 53.3251 129.809 54.2494C128.653 55.2595 127.044 55.7639 124.976 55.7639C123.067 55.7639 121.536 55.4051 120.377 54.6862L121.036 52.3761C122.284 53.1119 123.653 53.4811 125.145 53.4811C126.216 53.4811 127.049 53.2445 127.648 52.7739C128.244 52.3033 128.541 51.6715 128.541 50.8837C128.541 50.1817 128.296 49.5902 127.804 49.1105C127.315 48.6308 126.497 48.1849 125.356 47.7728C122.249 46.6431 120.697 44.9882 120.697 42.812C120.697 41.3898 121.241 40.2237 122.331 39.3163C123.416 38.4076 124.864 37.9539 126.675 37.9539C128.289 37.9539 129.631 38.2282 130.701 38.7755L129.991 41.0349C128.991 40.5045 127.86 40.2393 126.595 40.2393C125.595 40.2393 124.813 40.4798 124.253 40.9582C123.78 41.3859 123.543 41.9072 123.543 42.5247C123.543 43.2085 123.813 43.774 124.357 44.2186C124.831 44.6294 125.691 45.074 126.939 45.5537C128.465 46.153 129.587 46.8537 130.308 47.6571C131.027 48.4579 131.385 49.4602 131.385 50.6562Z" fill="#5E6775"/>
<path d="M140.784 45.1131H137.651V51.1698C137.651 52.7103 138.203 53.4799 139.309 53.4799C139.817 53.4799 140.239 53.437 140.572 53.3512L140.651 55.4559C140.091 55.66 139.353 55.7627 138.44 55.7627C137.317 55.7627 136.44 55.4286 135.807 54.7617C135.176 54.0935 134.859 52.9729 134.859 51.3986V45.1105H132.992V43.0305H134.859V40.7464L137.651 39.9248V43.0305H140.784V45.1131Z" fill="#5E6775"/>
<path d="M154.921 49.1678C154.921 51.0853 154.359 52.6596 153.236 53.8907C152.059 55.1582 150.496 55.79 148.548 55.79C146.671 55.79 145.176 55.1829 144.061 53.9687C142.947 52.7545 142.389 51.2218 142.389 49.3745C142.389 47.4414 142.963 45.858 144.113 44.6269C145.261 43.3945 146.811 42.7783 148.759 42.7783C150.636 42.7783 152.147 43.3854 153.287 44.6009C154.377 45.78 154.921 47.3023 154.921 49.1678ZM151.972 49.2575C151.972 48.107 151.72 47.1203 151.209 46.2974C150.613 45.3016 149.761 44.805 148.657 44.805C147.515 44.805 146.647 45.3029 146.051 46.2974C145.54 47.1216 145.288 48.1239 145.288 49.3095C145.288 50.46 145.54 51.4467 146.051 52.2683C146.665 53.2641 147.524 53.7607 148.632 53.7607C149.717 53.7607 150.569 53.2537 151.184 52.2423C151.708 51.4038 151.972 50.4067 151.972 49.2575Z" fill="#5E6775"/>
<path d="M164.161 45.4705C163.88 45.4198 163.58 45.3938 163.265 45.3938C162.265 45.3938 161.492 45.7617 160.948 46.4988C160.475 47.1488 160.237 47.9704 160.237 48.9623V55.5078H157.396L157.423 46.9616C157.423 45.5238 157.387 44.2147 157.316 43.0343H159.792L159.896 45.4211H159.975C160.275 44.6008 160.748 43.9404 161.396 43.4451C162.029 42.9992 162.713 42.7769 163.451 42.7769C163.713 42.7769 163.951 42.7951 164.161 42.8276V45.4705Z" fill="#5E6775"/>
<path d="M176.875 48.6801C176.875 49.1767 176.841 49.5953 176.771 49.9372H168.243C168.276 51.1696 168.688 52.1121 169.48 52.7621C170.199 53.3432 171.128 53.6344 172.269 53.6344C173.532 53.6344 174.684 53.4381 175.72 53.0442L176.165 54.9682C174.955 55.483 173.525 55.7391 171.876 55.7391C169.892 55.7391 168.335 55.1697 167.201 54.0322C166.071 52.8947 165.504 51.3672 165.504 49.451C165.504 47.5699 166.031 46.0034 167.085 44.7541C168.189 43.4203 169.681 42.7534 171.559 42.7534C173.403 42.7534 174.799 43.4203 175.747 44.7541C176.497 45.8136 176.875 47.124 176.875 48.6801ZM174.164 47.9612C174.183 47.1396 173.997 46.4298 173.612 45.8305C173.12 45.0596 172.364 44.6748 171.347 44.6748C170.417 44.6748 169.661 45.0505 169.084 45.8045C168.611 46.4038 168.329 47.1227 168.243 47.9599H174.164V47.9612Z" fill="#5E6775"/>
<path d="M79.4 27.564C79.4 29.0941 78.9294 30.2459 77.9894 31.0194C77.1187 31.7331 75.8814 32.0906 74.2787 32.0906C73.484 32.0906 72.804 32.0568 72.2347 31.9892V23.6289C72.9773 23.5119 73.7773 23.4521 74.6413 23.4521C76.168 23.4521 77.3187 23.7758 78.0947 24.4232C78.964 25.1551 79.4 26.2016 79.4 27.564ZM77.9267 27.6017C77.9267 26.6098 77.6574 25.8493 77.1187 25.3189C76.58 24.7898 75.7934 24.5246 74.7574 24.5246C74.3174 24.5246 73.9427 24.5532 73.632 24.613V30.9687C73.804 30.9947 74.1187 31.0064 74.576 31.0064C75.6454 31.0064 76.4707 30.7165 77.052 30.1367C77.6334 29.5569 77.9267 28.7119 77.9267 27.6017Z" fill="#5E6775"/>
<path d="M87.212 28.9004C87.212 29.8429 86.936 30.6151 86.384 31.2209C85.8054 31.8436 85.0387 32.1543 84.0814 32.1543C83.1587 32.1543 82.424 31.8566 81.876 31.2586C81.3294 30.6619 81.056 29.9092 81.056 29.0018C81.056 28.0528 81.3374 27.2741 81.9027 26.6696C82.468 26.0651 83.228 25.7622 84.1854 25.7622C85.108 25.7622 85.8494 26.0599 86.4107 26.6566C86.944 27.2364 87.212 27.9852 87.212 28.9004ZM85.7627 28.9446C85.7627 28.3791 85.6374 27.8942 85.388 27.4899C85.0947 27.0011 84.6774 26.7567 84.1347 26.7567C83.5734 26.7567 83.1467 27.0011 82.8534 27.4899C82.6027 27.8942 82.4787 28.3869 82.4787 28.9693C82.4787 29.5348 82.604 30.0197 82.8534 30.424C83.156 30.9128 83.5774 31.1572 84.1214 31.1572C84.6547 31.1572 85.0734 30.9089 85.3747 30.411C85.6334 29.9989 85.7627 29.5101 85.7627 28.9446Z" fill="#5E6775"/>
<path d="M97.6867 25.8872L95.72 32.0154H94.44L93.6253 29.3543C93.4187 28.69 93.2507 28.0296 93.12 27.3744H93.0947C92.9733 28.0478 92.8053 28.7069 92.5893 29.3543L91.724 32.0154H90.4293L88.58 25.8872H90.016L90.7267 28.8005C90.8987 29.4895 91.04 30.146 91.1533 30.7674H91.1787C91.2827 30.2552 91.4547 29.6026 91.6973 28.8135L92.5893 25.8885H93.728L94.5827 28.7511C94.7893 29.4492 94.9573 30.1213 95.0867 30.7687H95.1253C95.22 30.1382 95.3627 29.4661 95.552 28.7511L96.3147 25.8885H97.6867V25.8872Z" fill="#5E6775"/>
<path d="M104.931 32.0154H103.533V28.5054C103.533 27.4238 103.112 26.883 102.267 26.883C101.852 26.883 101.517 27.0312 101.257 27.3289C101 27.6266 100.869 27.9776 100.869 28.3793V32.0141H99.472V27.6383C99.472 27.1001 99.4547 26.5164 99.4213 25.8846H100.649L100.715 26.8427H100.753C100.916 26.545 101.159 26.2993 101.477 26.103C101.856 25.8742 102.28 25.7585 102.744 25.7585C103.331 25.7585 103.819 25.9431 104.207 26.3136C104.689 26.7673 104.931 27.4446 104.931 28.3442V32.0154Z" fill="#5E6775"/>
<path d="M108.784 32.0153H107.388V23.0752H108.784V32.0153Z" fill="#5E6775"/>
<path d="M117.011 28.9004C117.011 29.8429 116.735 30.6151 116.183 31.2209C115.604 31.8436 114.836 32.1543 113.88 32.1543C112.956 32.1543 112.221 31.8566 111.675 31.2586C111.128 30.6619 110.855 29.9092 110.855 29.0018C110.855 28.0528 111.136 27.2741 111.701 26.6696C112.267 26.0651 113.027 25.7622 113.983 25.7622C114.907 25.7622 115.647 26.0599 116.209 26.6566C116.743 27.2364 117.011 27.9852 117.011 28.9004ZM115.56 28.9446C115.56 28.3791 115.435 27.8942 115.185 27.4899C114.893 27.0011 114.475 26.7567 113.933 26.7567C113.371 26.7567 112.944 27.0011 112.652 27.4899C112.401 27.8942 112.277 28.3869 112.277 28.9693C112.277 29.5348 112.403 30.0197 112.652 30.424C112.955 30.9128 113.376 31.1572 113.92 31.1572C114.453 31.1572 114.871 30.9089 115.172 30.411C115.432 29.9989 115.56 29.5101 115.56 28.9446Z" fill="#5E6775"/>
<path d="M123.773 32.0152H122.519L122.415 31.3093H122.376C121.947 31.8722 121.335 32.1543 120.54 32.1543C119.947 32.1543 119.467 31.9684 119.105 31.5992C118.777 31.2638 118.613 30.8465 118.613 30.3512C118.613 29.6024 118.933 29.0317 119.577 28.6365C120.22 28.2413 121.124 28.0476 122.288 28.0567V27.9423C122.288 27.135 121.853 26.732 120.983 26.732C120.363 26.732 119.816 26.8841 119.344 27.1857L119.06 26.2913C119.644 25.939 120.365 25.7622 121.216 25.7622C122.859 25.7622 123.683 26.6072 123.683 28.2972V30.554C123.683 31.1663 123.713 31.6538 123.773 32.0152ZM122.323 29.9092V28.9641C120.781 28.9381 120.011 29.3502 120.011 30.1991C120.011 30.5189 120.099 30.7581 120.279 30.918C120.459 31.0779 120.688 31.1572 120.961 31.1572C121.268 31.1572 121.555 31.0623 121.816 30.8738C122.079 30.684 122.24 30.4435 122.3 30.1484C122.315 30.0821 122.323 30.0015 122.323 29.9092Z" fill="#5E6775"/>
<path d="M131.713 32.0153H130.473L130.408 31.0312H130.369C129.973 31.78 129.299 32.1544 128.351 32.1544C127.593 32.1544 126.963 31.8645 126.463 31.2847C125.963 30.7049 125.713 29.9522 125.713 29.0279C125.713 28.036 125.984 27.2326 126.528 26.619C127.055 26.047 127.7 25.761 128.468 25.761C129.312 25.761 129.903 26.0379 130.239 26.593H130.265V23.0752H131.664V30.3643C131.664 30.961 131.68 31.5109 131.713 32.0153ZM130.265 29.4309V28.4091C130.265 28.2323 130.252 28.0893 130.227 27.9801C130.148 27.6525 129.979 27.3769 129.721 27.1546C129.461 26.9323 129.148 26.8205 128.787 26.8205C128.265 26.8205 127.857 27.022 127.557 27.4263C127.26 27.8306 127.109 28.3467 127.109 28.9772C127.109 29.583 127.252 30.0744 127.539 30.4527C127.841 30.8557 128.249 31.0572 128.76 31.0572C129.219 31.0572 129.585 30.8895 129.864 30.5528C130.133 30.2421 130.265 29.8677 130.265 29.4309Z" fill="#5E6775"/>
<path d="M143.664 28.9004C143.664 29.8429 143.388 30.6151 142.836 31.2209C142.257 31.8436 141.492 32.1543 140.533 32.1543C139.612 32.1543 138.877 31.8566 138.328 31.2586C137.781 30.6619 137.508 29.9092 137.508 29.0018C137.508 28.0528 137.789 27.2741 138.355 26.6696C138.92 26.0651 139.68 25.7622 140.639 25.7622C141.56 25.7622 142.303 26.0599 142.863 26.6566C143.396 27.2364 143.664 27.9852 143.664 28.9004ZM142.216 28.9446C142.216 28.3791 142.091 27.8942 141.841 27.4899C141.547 27.0011 141.131 26.7567 140.587 26.7567C140.027 26.7567 139.6 27.0011 139.305 27.4899C139.055 27.8942 138.931 28.3869 138.931 28.9693C138.931 29.5348 139.056 30.0197 139.305 30.424C139.608 30.9128 140.029 31.1572 140.573 31.1572C141.107 31.1572 141.527 30.9089 141.828 30.411C142.085 29.9989 142.216 29.5101 142.216 28.9446Z" fill="#5E6775"/>
<path d="M151.177 32.0154H149.781V28.5054C149.781 27.4238 149.36 26.883 148.513 26.883C148.099 26.883 147.764 27.0312 147.505 27.3289C147.247 27.6266 147.117 27.9776 147.117 28.3793V32.0141H145.719V27.6383C145.719 27.1001 145.703 26.5164 145.669 25.8846H146.896L146.961 26.8427H147C147.164 26.545 147.407 26.2993 147.724 26.103C148.104 25.8742 148.527 25.7585 148.992 25.7585C149.577 25.7585 150.065 25.9431 150.453 26.3136C150.937 26.7673 151.177 27.4446 151.177 28.3442V32.0154Z" fill="#5E6775"/>
<path d="M160.581 26.9075H159.043V29.8845C159.043 30.6411 159.316 31.0194 159.857 31.0194C160.108 31.0194 160.316 30.9986 160.48 30.9557L160.516 31.9892C160.24 32.0906 159.877 32.1413 159.431 32.1413C158.879 32.1413 158.449 31.9775 158.139 31.6499C157.827 31.3223 157.672 30.7711 157.672 29.9976V26.9075H156.753V25.887H157.672V24.7638L159.041 24.3608V25.8857H160.58V26.9075H160.581Z" fill="#5E6775"/>
<path d="M167.979 32.0153H166.58V28.5313C166.58 27.4328 166.159 26.8829 165.315 26.8829C164.667 26.8829 164.224 27.2014 163.981 27.8384C163.94 27.9723 163.916 28.1361 163.916 28.3285V32.014H162.52V23.0752H163.916V26.7685H163.943C164.383 26.0964 165.013 25.761 165.831 25.761C166.409 25.761 166.888 25.9456 167.268 26.3161C167.741 26.7776 167.979 27.464 167.979 28.3714V32.0153Z" fill="#5E6775"/>
<path d="M175.609 28.6612C175.609 28.9056 175.591 29.111 175.557 29.2787H171.367C171.385 29.8845 171.585 30.346 171.973 30.6658C172.328 30.9518 172.785 31.0948 173.345 31.0948C173.965 31.0948 174.531 30.9986 175.04 30.8049L175.259 31.7513C174.663 32.0035 173.961 32.1296 173.149 32.1296C172.176 32.1296 171.409 31.8501 170.855 31.2911C170.297 30.7321 170.021 29.982 170.021 29.0408C170.021 28.1165 170.279 27.3469 170.797 26.7333C171.339 26.0781 172.071 25.7505 172.995 25.7505C173.899 25.7505 174.585 26.0781 175.049 26.7333C175.424 27.2533 175.609 27.8968 175.609 28.6612ZM174.276 28.3089C174.287 27.9046 174.195 27.5562 174.005 27.2624C173.763 26.8841 173.393 26.6943 172.893 26.6943C172.437 26.6943 172.065 26.8789 171.781 27.2494C171.549 27.5445 171.412 27.8968 171.367 28.3089H174.276Z" fill="#5E6775"/>
<defs>
<filter id="filter0_ddddii" x="0" y="0.533691" width="211" height="83.0377" filterUnits="userSpaceOnUse" color-interpolation-filters="sRGB">
<feFlood flood-opacity="0" result="BackgroundImageFix"/>
<feColorMatrix in="SourceAlpha" type="matrix" values="0 0 0 0 0 0 0 0 0 0 0 0 0 0 0 0 0 0 127 0"/>
<feOffset dx="5" dy="5"/>
<feGaussianBlur stdDeviation="6.5"/>
<feColorMatrix type="matrix" values="0 0 0 0 0.839216 0 0 0 0 0.85098 0 0 0 0 0.862745 0 0 0 0.9 0"/>
<feBlend mode="normal" in2="BackgroundImageFix" result="effect1_dropShadow"/>
<feColorMatrix in="SourceAlpha" type="matrix" values="0 0 0 0 0 0 0 0 0 0 0 0 0 0 0 0 0 0 127 0"/>
<feOffset dx="-5" dy="-5"/>
<feGaussianBlur stdDeviation="5"/>
<feColorMatrix type="matrix" values="0 0 0 0 1 0 0 0 0 1 0 0 0 0 1 0 0 0 0.9 0"/>
<feBlend mode="normal" in2="effect1_dropShadow" result="effect2_dropShadow"/>
<feColorMatrix in="SourceAlpha" type="matrix" values="0 0 0 0 0 0 0 0 0 0 0 0 0 0 0 0 0 0 127 0"/>
<feOffset dx="5" dy="-5"/>
<feGaussianBlur stdDeviation="5"/>
<feColorMatrix type="matrix" values="0 0 0 0 0.839216 0 0 0 0 0.85098 0 0 0 0 0.862745 0 0 0 0.2 0"/>
<feBlend mode="normal" in2="effect2_dropShadow" result="effect3_dropShadow"/>
<feColorMatrix in="SourceAlpha" type="matrix" values="0 0 0 0 0 0 0 0 0 0 0 0 0 0 0 0 0 0 127 0"/>
<feOffset dx="-5" dy="5"/>
<feGaussianBlur stdDeviation="5"/>
<feColorMatrix type="matrix" values="0 0 0 0 0.839216 0 0 0 0 0.85098 0 0 0 0 0.862745 0 0 0 0.2 0"/>
<feBlend mode="normal" in2="effect3_dropShadow" result="effect4_dropShadow"/>
<feBlend mode="normal" in="SourceGraphic" in2="effect4_dropShadow" result="shape"/>
<feColorMatrix in="SourceAlpha" type="matrix" values="0 0 0 0 0 0 0 0 0 0 0 0 0 0 0 0 0 0 127 0" result="hardAlpha"/>
<feOffset dx="-1" dy="-1"/>
<feGaussianBlur stdDeviation="1"/>
<feComposite in2="hardAlpha" operator="arithmetic" k2="-1" k3="1"/>
<feColorMatrix type="matrix" values="0 0 0 0 0.839216 0 0 0 0 0.85098 0 0 0 0 0.862745 0 0 0 0.5 0"/>
<feBlend mode="normal" in2="shape" result="effect5_innerShadow"/>
<feColorMatrix in="SourceAlpha" type="matrix" values="0 0 0 0 0 0 0 0 0 0 0 0 0 0 0 0 0 0 127 0" result="hardAlpha"/>
<feOffset dx="1" dy="1"/>
<feGaussianBlur stdDeviation="1"/>
<feComposite in2="hardAlpha" operator="arithmetic" k2="-1" k3="1"/>
<feColorMatrix type="matrix" values="0 0 0 0 1 0 0 0 0 1 0 0 0 0 1 0 0 0 0.3 0"/>
<feBlend mode="normal" in2="effect5_innerShadow" result="effect6_innerShadow"/>
</filter>
<linearGradient id="paint0_linear" x1="15" y1="15.5337" x2="41.072" y2="108.28" gradientUnits="userSpaceOnUse">
<stop stop-color="#FAFDFF"/>
<stop offset="1" stop-color="#E2E5E8"/>
</linearGradient>
</defs>
</svg>
