<svg xmlns="http://www.w3.org/2000/svg" width="343.75" height="248.875" viewBox="0 0 343.75 248.875">
  <defs>
    <style>
      .cls-1 {
        fill-rule: evenodd;
      }
    </style>
  </defs>
  <path id="free_ToGo" style="fill: #FD9256" data-name="free ToGo" class="cls-1" d="M230.906,361.793a12.913,12.913,0,0,0,3.968,9.46,14,14,0,0,0,19.531,0,12.913,12.913,0,0,0,3.967-9.46V344.7h4.578a13.275,13.275,0,0,0,9.766-3.967,13.264,13.264,0,0,0,0-18.921,13.275,13.275,0,0,0-9.766-3.967h-4.578v-4.883a10.621,10.621,0,0,1,3.174-7.813,10.539,10.539,0,0,1,14.954-.122l4.089,5.005a13.851,13.851,0,0,0,19.592.183,12.913,12.913,0,0,0,3.968-9.46,12.642,12.642,0,0,0-3.113-8.545,40.129,40.129,0,0,0-4.822-5.921,38.535,38.535,0,0,0-54.2-.061,36.448,36.448,0,0,0-11.109,26.734v48.828Zm96.131-74.463a13.276,13.276,0,0,0-9.766,3.967,12.922,12.922,0,0,0-3.967,9.461v61.035a12.916,12.916,0,0,0,3.967,9.46,14,14,0,0,0,19.531,0,12.913,12.913,0,0,0,3.968-9.46V325.172a10.617,10.617,0,0,1,3.174-7.813,10.538,10.538,0,0,1,14.953-.122l4.09,5a13.851,13.851,0,0,0,19.592.183,12.916,12.916,0,0,0,3.967-9.46,12.637,12.637,0,0,0-3.113-8.545,40,40,0,0,0-4.821-5.92,37.1,37.1,0,0,0-27.161-11.17,35.222,35.222,0,0,0-15.5,3.113q-3.174-3.112-8.911-3.113h0ZM430.98,314.186a16.008,16.008,0,0,1,10.376,3.662H420.6a16,16,0,0,1,10.376-3.662h0ZM461.5,344.7a13.273,13.273,0,0,0,9.766-3.967,12.919,12.919,0,0,0,3.967-9.461,44.325,44.325,0,1,0-44.25,43.946h18.31a13.27,13.27,0,0,0,9.766-3.968,13.263,13.263,0,0,0,0-18.92,13.274,13.274,0,0,0-9.766-3.968H430.98A16,16,0,0,1,420.6,344.7H461.5Zm67.139-30.517a16.008,16.008,0,0,1,10.376,3.662H518.26a16.006,16.006,0,0,1,10.376-3.662h0ZM559.154,344.7a13.271,13.271,0,0,0,9.765-3.967,12.915,12.915,0,0,0,3.967-9.461,44.325,44.325,0,1,0-44.25,43.946h18.311a13.268,13.268,0,0,0,9.765-3.968,13.263,13.263,0,0,0,0-18.92,13.272,13.272,0,0,0-9.765-3.968H528.636A16.006,16.006,0,0,1,518.26,344.7h40.894ZM254.436,511.793a12.207,12.207,0,1,0,24.414,0V450.758h12.207a12.207,12.207,0,1,0,0-24.414H242.229a12.207,12.207,0,1,0,0,24.414h12.207v61.035Zm108.459-.305A42.733,42.733,0,1,0,332.683,524,41.167,41.167,0,0,0,362.9,511.488Zm-30.212-11.9a18.338,18.338,0,1,1,12.939-5.371,17.635,17.635,0,0,1-12.939,5.371h0Zm143.432-18.311a12.19,12.19,0,0,0-12.207-12.207H436.442a12.207,12.207,0,1,0,0,24.414H451.7v0.794a24.43,24.43,0,1,1,2.014-36.377,3.729,3.729,0,0,0,.794.61,5.3,5.3,0,0,0,.793.855,11.613,11.613,0,0,0,8.606,3.6,12.19,12.19,0,0,0,12.207-12.207,11.919,11.919,0,0,0-3.54-8.667q-0.489-.426-0.976-0.794-0.306-.366-0.611-0.671a48.859,48.859,0,1,0,0,69.031l0.366-.366a14.944,14.944,0,0,0,1.221-1.1,11.712,11.712,0,0,0,3.54-8.606V481.275Zm85.144,30.213A42.733,42.733,0,1,0,531.047,524,41.167,41.167,0,0,0,561.259,511.488Zm-30.212-11.9a18.338,18.338,0,1,1,12.939-5.371,17.637,17.637,0,0,1-12.939,5.371h0Z" transform="translate(-230.031 -275.125)"/>
</svg>
