<svg xmlns="http://www.w3.org/2000/svg" width="696.407" height="100.094" viewBox="0 0 696.407 100.094">
  <defs>
    <style>
      .cls-1 {
        fill-rule: evenodd;
      }
    </style>
  </defs>
  <path id="freeToGo" style="fill: #FD9256" class="cls-1" d="M52.928,361.793a12.914,12.914,0,0,0,3.967,9.46,14,14,0,0,0,19.531,0,12.915,12.915,0,0,0,3.967-9.46V344.7h4.578a13.273,13.273,0,0,0,9.766-3.967,13.264,13.264,0,0,0,0-18.921,13.273,13.273,0,0,0-9.766-3.967H80.394v-4.883a10.62,10.62,0,0,1,3.174-7.813,10.539,10.539,0,0,1,14.954-.122l4.09,5.005a13.851,13.851,0,0,0,19.592.183,12.916,12.916,0,0,0,3.967-9.46,12.637,12.637,0,0,0-3.113-8.545,40.056,40.056,0,0,0-4.821-5.921,37.1,37.1,0,0,0-27.161-11.169,36.8,36.8,0,0,0-27.039,11.108,36.446,36.446,0,0,0-11.108,26.734v48.828Zm96.13-74.463a13.272,13.272,0,0,0-9.765,3.967,12.919,12.919,0,0,0-3.968,9.461v61.035a12.913,12.913,0,0,0,3.968,9.46,14,14,0,0,0,19.531,0,12.913,12.913,0,0,0,3.967-9.46V325.172a10.621,10.621,0,0,1,3.174-7.813,10.539,10.539,0,0,1,14.954-.122l4.089,5a13.851,13.851,0,0,0,19.592.183,12.913,12.913,0,0,0,3.968-9.46,12.642,12.642,0,0,0-3.113-8.545,40.071,40.071,0,0,0-4.822-5.92,37.1,37.1,0,0,0-27.161-11.17,35.228,35.228,0,0,0-15.5,3.113q-3.174-3.112-8.911-3.113h0ZM253,314.186a16.008,16.008,0,0,1,10.376,3.662H242.625A16.006,16.006,0,0,1,253,314.186h0ZM283.519,344.7a13.271,13.271,0,0,0,9.765-3.967,12.916,12.916,0,0,0,3.968-9.461A44.075,44.075,0,0,0,253,287.33a43.946,43.946,0,1,0,0,87.891h18.311a13.268,13.268,0,0,0,9.765-3.968,13.261,13.261,0,0,0,0-18.92,13.272,13.272,0,0,0-9.765-3.968H253a16.006,16.006,0,0,1-10.376-3.662h40.894Zm67.138-30.517a16,16,0,0,1,10.376,3.662H340.281a16.006,16.006,0,0,1,10.376-3.662h0ZM381.175,344.7a13.275,13.275,0,0,0,9.766-3.967,12.919,12.919,0,0,0,3.967-9.461,44.325,44.325,0,0,0-75.592-31.036,43.946,43.946,0,0,0,31.341,74.982h18.311a13.272,13.272,0,0,0,9.766-3.968,13.263,13.263,0,0,0,0-18.92,13.276,13.276,0,0,0-9.766-3.968H350.657a16.006,16.006,0,0,1-10.376-3.662h40.894ZM430,361.793a12.207,12.207,0,1,0,24.414,0V300.758h12.207a12.207,12.207,0,1,0,0-24.414H417.8a12.207,12.207,0,1,0,0,24.414H430v61.035Zm108.46-.305A42.733,42.733,0,1,0,508.25,374,41.171,41.171,0,0,0,538.463,361.488Zm-30.213-11.9a18.338,18.338,0,1,1,12.94-5.371,17.633,17.633,0,0,1-12.94,5.371h0Zm143.433-18.311a12.192,12.192,0,0,0-12.207-12.207H612.01a12.207,12.207,0,1,0,0,24.414h15.259v0.794a24.43,24.43,0,1,1,2.014-36.377,3.724,3.724,0,0,0,.793.61,5.346,5.346,0,0,0,.794.855,11.611,11.611,0,0,0,8.606,3.6,12.192,12.192,0,0,0,12.207-12.207,11.923,11.923,0,0,0-3.54-8.667q-0.489-.426-0.977-0.794-0.306-.366-0.61-0.671A48.834,48.834,0,1,0,577.5,359.687a48.773,48.773,0,0,0,69.061-.03l0.366-.366a15.111,15.111,0,0,0,1.221-1.1,11.716,11.716,0,0,0,3.54-8.606V331.275Zm85.144,30.213A42.733,42.733,0,1,0,706.615,374,41.167,41.167,0,0,0,736.827,361.488Zm-30.212-11.9a18.338,18.338,0,1,1,12.939-5.371,17.635,17.635,0,0,1-12.939,5.371h0Z" transform="translate(-52.938 -275.125)"/>
</svg>
