<svg width="213" height="85" viewBox="0 0 213 85" fill="none" xmlns="http://www.w3.org/2000/svg">
<g filter="url(#filter0_ddddii)">
<path d="M188.095 67H21.6575C17.9975 67 15 64.0734 15 60.5V21.5C15 17.9266 17.9975 15 21.6575 15H188.095C191.755 15 194.753 17.9266 194.753 21.5V60.5C194.753 64.0734 191.755 67 188.095 67Z" fill="url(#paint0_linear)"/>
</g>
<path d="M78.1364 28.3169C78.1364 29.4024 77.8035 30.2718 77.1478 30.9202C76.3938 31.6888 75.4118 32.0756 74.2085 32.0756C73.0584 32.0756 72.0764 31.6823 71.2708 30.9072C70.4636 30.1207 70.0609 29.1554 70.0609 28.0001C70.0609 26.8447 70.4636 25.8794 71.2708 25.0994C72.0764 24.3178 73.0584 23.9246 74.2085 23.9246C74.781 23.9246 75.3269 24.0399 75.8479 24.2544C76.3672 24.4706 76.7899 24.7631 77.0962 25.1238L76.4005 25.8096C75.8662 25.1937 75.1389 24.8898 74.2085 24.8898C73.3696 24.8898 72.6423 25.1758 72.0248 25.7527C71.414 26.3312 71.1077 27.0803 71.1077 28.0001C71.1077 28.9198 71.414 29.6754 72.0248 30.2539C72.6423 30.8243 73.3696 31.1168 74.2085 31.1168C75.0989 31.1168 75.8479 30.8243 76.4387 30.2474C76.8282 29.8656 77.0496 29.3391 77.1078 28.6663H74.2085V27.7271H78.0765C78.1231 27.9302 78.1364 28.1268 78.1364 28.3169Z" fill="#5E6775" stroke="white" stroke-width="0.16" stroke-miterlimit="10"/>
<path d="M84.2729 25.0604H80.6396V27.5304H83.9151V28.4696H80.6396V30.9396H84.2729V31.8968H79.611V24.1033H84.2729V25.0604Z" fill="#5E6775" stroke="white" stroke-width="0.16" stroke-miterlimit="10"/>
<path d="M88.6037 31.8968H87.5751V25.0604H85.3465V24.1033H90.8339V25.0604H88.6037V31.8968Z" fill="#5E6775" stroke="white" stroke-width="0.16" stroke-miterlimit="10"/>
<path d="M94.8051 31.8968V24.1033H95.832V31.8968H94.8051Z" fill="#5E6775" stroke="white" stroke-width="0.16" stroke-miterlimit="10"/>
<path d="M100.384 31.8968H99.3639V25.0604H97.127V24.1033H102.621V25.0604H100.384V31.8968Z" fill="#5E6775" stroke="white" stroke-width="0.16" stroke-miterlimit="10"/>
<path d="M113.01 30.8942C112.223 31.6823 111.248 32.0756 110.084 32.0756C108.914 32.0756 107.939 31.6823 107.152 30.8942C106.366 30.1077 105.975 29.1424 105.975 28.0001C105.975 26.8577 106.366 25.8924 107.152 25.1059C107.939 24.3178 108.914 23.9246 110.084 23.9246C111.241 23.9246 112.216 24.3178 113.003 25.1124C113.796 25.9054 114.187 26.8642 114.187 28.0001C114.187 29.1424 113.796 30.1077 113.01 30.8942ZM107.912 30.2409C108.505 30.8243 109.225 31.1168 110.084 31.1168C110.936 31.1168 111.664 30.8243 112.249 30.2409C112.84 29.6576 113.14 28.9084 113.14 28.0001C113.14 27.0917 112.84 26.3426 112.249 25.7592C111.664 25.1758 110.936 24.8833 110.084 24.8833C109.225 24.8833 108.505 25.1758 107.912 25.7592C107.321 26.3426 107.022 27.0917 107.022 28.0001C107.022 28.9084 107.321 29.6576 107.912 30.2409Z" fill="#5E6775" stroke="white" stroke-width="0.16" stroke-miterlimit="10"/>
<path d="M115.63 31.8968V24.1033H116.878L120.759 30.1645H120.804L120.759 28.6663V24.1033H121.786V31.8968H120.714L116.65 25.5365H116.605L116.65 27.0413V31.8968H115.63Z" fill="#5E6775" stroke="white" stroke-width="0.16" stroke-miterlimit="10"/>
<path d="M105.722 43.2783C102.594 43.2783 100.04 45.602 100.04 48.8082C100.04 51.9883 102.594 54.3364 105.722 54.3364C108.856 54.3364 111.411 51.9883 111.411 48.8082C111.411 45.602 108.856 43.2783 105.722 43.2783ZM105.722 52.1589C104.006 52.1589 102.529 50.776 102.529 48.8082C102.529 46.8143 104.006 45.4558 105.722 45.4558C107.438 45.4558 108.921 46.8143 108.921 48.8082C108.921 50.776 107.438 52.1589 105.722 52.1589ZM93.3238 43.2783C90.1898 43.2783 87.6417 45.602 87.6417 48.8082C87.6417 51.9883 90.1898 54.3364 93.3238 54.3364C96.4562 54.3364 99.006 51.9883 99.006 48.8082C99.006 45.602 96.4562 43.2783 93.3238 43.2783ZM93.3238 52.1589C91.6062 52.1589 90.1249 50.776 90.1249 48.8082C90.1249 46.8143 91.6062 45.4558 93.3238 45.4558C95.0398 45.4558 96.5161 46.8143 96.5161 48.8082C96.5161 50.776 95.0398 52.1589 93.3238 52.1589ZM78.5708 44.9732V47.3229H84.3179C84.1498 48.6359 83.7004 49.6012 83.0114 50.2739C82.1725 51.0864 80.866 51.9883 78.5708 51.9883C75.034 51.9883 72.2645 49.2014 72.2645 45.7483C72.2645 42.2952 75.034 39.5083 78.5708 39.5083C80.4832 39.5083 81.8746 40.2379 82.9015 41.1837L84.5975 39.5278C83.1612 38.1888 81.2505 37.1602 78.5708 37.1602C73.7208 37.1602 69.6448 41.013 69.6448 45.7483C69.6448 50.4835 73.7208 54.3364 78.5708 54.3364C81.1922 54.3364 83.1612 53.4979 84.709 51.9249C86.2952 50.3763 86.7895 48.1988 86.7895 46.4405C86.7895 45.8945 86.7429 45.3924 86.6597 44.9732H78.5708ZM138.898 46.7948C138.43 45.5582 136.987 43.2783 134.048 43.2783C131.135 43.2783 128.71 45.5192 128.71 48.8082C128.71 51.9054 131.11 54.3364 134.327 54.3364C136.929 54.3364 138.43 52.7878 139.048 51.8859L137.117 50.6298C136.473 51.5495 135.596 52.1589 134.327 52.1589C133.067 52.1589 132.164 51.595 131.584 50.4835L139.159 47.4237L138.898 46.7948ZM131.175 48.6359C131.11 46.5039 132.871 45.4119 134.133 45.4119C135.121 45.4119 135.96 45.8945 136.24 46.5852L131.175 48.6359ZM125.019 54H127.508V37.75H125.019V54ZM120.941 44.51H120.858C120.298 43.8633 119.232 43.2783 117.88 43.2783C115.044 43.2783 112.451 45.7093 112.451 48.826C112.451 51.9249 115.044 54.3364 117.88 54.3364C119.232 54.3364 120.298 53.7465 120.858 53.0803H120.941V53.8733C120.941 55.9874 119.784 57.1233 117.918 57.1233C116.397 57.1233 115.453 56.0508 115.064 55.1489L112.899 56.0313C113.523 57.497 115.175 59.3008 117.918 59.3008C120.838 59.3008 123.301 57.6238 123.301 53.5434V43.6147H120.941V44.51ZM118.093 52.1589C116.377 52.1589 114.941 50.7565 114.941 48.826C114.941 46.8777 116.377 45.4558 118.093 45.4558C119.784 45.4558 121.117 46.8777 121.117 48.826C121.117 50.7565 119.784 52.1589 118.093 52.1589ZM150.555 37.75H144.6V54H147.083V47.8429H150.555C153.313 47.8429 156.018 45.8945 156.018 42.7957C156.018 39.6984 153.306 37.75 150.555 37.75ZM150.62 45.5825H147.083V40.0104H150.62C152.474 40.0104 153.533 41.5135 153.533 42.7957C153.533 44.0534 152.474 45.5825 150.62 45.5825ZM165.97 43.2474C164.176 43.2474 162.311 44.0209 161.543 45.7353L163.747 46.6372C164.221 45.7353 165.093 45.4428 166.015 45.4428C167.304 45.4428 168.61 46.1984 168.63 47.5325V47.7032C168.181 47.4497 167.219 47.0743 166.035 47.0743C163.662 47.0743 161.244 48.3499 161.244 50.7305C161.244 52.908 163.188 54.3104 165.373 54.3104C167.044 54.3104 167.966 53.5743 168.545 52.7179H168.63V53.974H171.029V47.7405C171.029 44.8594 168.825 43.2474 165.97 43.2474ZM165.671 52.1524C164.859 52.1524 163.727 51.7592 163.727 50.776C163.727 49.5183 165.138 49.0357 166.36 49.0357C167.453 49.0357 167.966 49.2713 168.63 49.5817C168.435 51.0864 167.109 52.1524 165.671 52.1524ZM179.766 43.6033L176.912 50.6477H176.827L173.876 43.6033H171.198L175.632 53.4475L173.102 58.9254H175.697L182.529 43.6033H179.766ZM157.382 54H159.872V37.75H157.382V54Z" fill="#5E6775"/>
<path d="M28.8942 24.8004C28.5031 25.2002 28.2767 25.8226 28.2767 26.6286V55.3781C28.2767 56.1841 28.5031 56.8064 28.8942 57.2062L28.9908 57.2939L45.4914 41.1902V40.8099L28.9908 24.7062L28.8942 24.8004Z" fill="url(#paint1_linear)"/>
<path d="M50.9854 46.5608L45.4913 41.1902V40.8099L50.9921 35.4393L51.1153 35.5092L57.6296 39.128C59.4887 40.155 59.4887 41.845 57.6296 42.8785L51.1153 46.4909L50.9854 46.5608Z" fill="url(#paint2_linear)"/>
<path d="M51.1153 46.491L45.4914 41.0001L28.8942 57.2062C29.5117 57.84 30.5187 57.9163 31.6637 57.2826L51.1153 46.491Z" fill="url(#paint3_linear)"/>
<path d="M51.1153 35.5091L31.6637 24.7175C30.5187 24.0903 29.5117 24.1666 28.8942 24.8004L45.4914 41L51.1153 35.5091Z" fill="url(#paint4_linear)"/>
<defs>
<filter id="filter0_ddddii" x="0" y="0" width="212.753" height="85" filterUnits="userSpaceOnUse" color-interpolation-filters="sRGB">
<feFlood flood-opacity="0" result="BackgroundImageFix"/>
<feColorMatrix in="SourceAlpha" type="matrix" values="0 0 0 0 0 0 0 0 0 0 0 0 0 0 0 0 0 0 127 0"/>
<feOffset dx="5" dy="5"/>
<feGaussianBlur stdDeviation="6.5"/>
<feColorMatrix type="matrix" values="0 0 0 0 0.839216 0 0 0 0 0.85098 0 0 0 0 0.862745 0 0 0 0.9 0"/>
<feBlend mode="normal" in2="BackgroundImageFix" result="effect1_dropShadow"/>
<feColorMatrix in="SourceAlpha" type="matrix" values="0 0 0 0 0 0 0 0 0 0 0 0 0 0 0 0 0 0 127 0"/>
<feOffset dx="-5" dy="-5"/>
<feGaussianBlur stdDeviation="5"/>
<feColorMatrix type="matrix" values="0 0 0 0 1 0 0 0 0 1 0 0 0 0 1 0 0 0 0.9 0"/>
<feBlend mode="normal" in2="effect1_dropShadow" result="effect2_dropShadow"/>
<feColorMatrix in="SourceAlpha" type="matrix" values="0 0 0 0 0 0 0 0 0 0 0 0 0 0 0 0 0 0 127 0"/>
<feOffset dx="5" dy="-5"/>
<feGaussianBlur stdDeviation="5"/>
<feColorMatrix type="matrix" values="0 0 0 0 0.839216 0 0 0 0 0.85098 0 0 0 0 0.862745 0 0 0 0.2 0"/>
<feBlend mode="normal" in2="effect2_dropShadow" result="effect3_dropShadow"/>
<feColorMatrix in="SourceAlpha" type="matrix" values="0 0 0 0 0 0 0 0 0 0 0 0 0 0 0 0 0 0 127 0"/>
<feOffset dx="-5" dy="5"/>
<feGaussianBlur stdDeviation="5"/>
<feColorMatrix type="matrix" values="0 0 0 0 0.839216 0 0 0 0 0.85098 0 0 0 0 0.862745 0 0 0 0.2 0"/>
<feBlend mode="normal" in2="effect3_dropShadow" result="effect4_dropShadow"/>
<feBlend mode="normal" in="SourceGraphic" in2="effect4_dropShadow" result="shape"/>
<feColorMatrix in="SourceAlpha" type="matrix" values="0 0 0 0 0 0 0 0 0 0 0 0 0 0 0 0 0 0 127 0" result="hardAlpha"/>
<feOffset dx="-1" dy="-1"/>
<feGaussianBlur stdDeviation="1"/>
<feComposite in2="hardAlpha" operator="arithmetic" k2="-1" k3="1"/>
<feColorMatrix type="matrix" values="0 0 0 0 0.839216 0 0 0 0 0.85098 0 0 0 0 0.862745 0 0 0 0.5 0"/>
<feBlend mode="normal" in2="shape" result="effect5_innerShadow"/>
<feColorMatrix in="SourceAlpha" type="matrix" values="0 0 0 0 0 0 0 0 0 0 0 0 0 0 0 0 0 0 127 0" result="hardAlpha"/>
<feOffset dx="1" dy="1"/>
<feGaussianBlur stdDeviation="1"/>
<feComposite in2="hardAlpha" operator="arithmetic" k2="-1" k3="1"/>
<feColorMatrix type="matrix" values="0 0 0 0 1 0 0 0 0 1 0 0 0 0 1 0 0 0 0.3 0"/>
<feBlend mode="normal" in2="effect5_innerShadow" result="effect6_innerShadow"/>
</filter>
<linearGradient id="paint0_linear" x1="15" y1="15" x2="89.7822" y2="-51.436" gradientUnits="userSpaceOnUse">
<stop stop-color="#FAFDFF"/>
<stop offset="1" stop-color="#E2E5E8"/>
</linearGradient>
<linearGradient id="paint1_linear" x1="44.0263" y1="55.6775" x2="22.2154" y2="33.3381" gradientUnits="userSpaceOnUse">
<stop stop-color="#00A0FF"/>
<stop offset="0.0066" stop-color="#00A1FF"/>
<stop offset="0.2601" stop-color="#00BEFF"/>
<stop offset="0.5122" stop-color="#00D2FF"/>
<stop offset="0.7604" stop-color="#00DFFF"/>
<stop offset="1" stop-color="#00E3FF"/>
</linearGradient>
<linearGradient id="paint2_linear" x1="60.0505" y1="40.9982" x2="27.8323" y2="40.9982" gradientUnits="userSpaceOnUse">
<stop stop-color="#FFE000"/>
<stop offset="0.4087" stop-color="#FFBD00"/>
<stop offset="0.7754" stop-color="#FFA500"/>
<stop offset="1" stop-color="#FF9C00"/>
</linearGradient>
<linearGradient id="paint3_linear" x1="48.0572" y1="38.0152" x2="18.4799" y2="7.72116" gradientUnits="userSpaceOnUse">
<stop stop-color="#FF3A44"/>
<stop offset="1" stop-color="#C31162"/>
</linearGradient>
<linearGradient id="paint4_linear" x1="24.7164" y1="66.7709" x2="37.924" y2="53.2434" gradientUnits="userSpaceOnUse">
<stop stop-color="#32A071"/>
<stop offset="0.0685" stop-color="#2DA771"/>
<stop offset="0.4762" stop-color="#15CF74"/>
<stop offset="0.8009" stop-color="#06E775"/>
<stop offset="1" stop-color="#00F076"/>
</linearGradient>
</defs>
</svg>

