<svg width="50" height="51" viewBox="0 0 50 51" fill="none" xmlns="http://www.w3.org/2000/svg">
<path d="M49.839 15.4521C49.811 13.3527 49.4173 11.2742 48.6756 9.30948C48.0324 7.65229 47.05 6.14726 45.7912 4.89056C44.5324 3.63386 43.0249 2.65312 41.365 2.011C39.4223 1.28297 37.37 0.889317 35.2954 0.846792C32.6244 0.727599 31.7775 0.694336 24.9972 0.694336C18.2169 0.694336 17.3478 0.694336 14.6962 0.846792C12.6226 0.889629 10.5713 1.28328 8.6295 2.011C6.96929 2.65267 5.46152 3.63326 4.20267 4.89001C2.94382 6.14677 1.9616 7.65203 1.31886 9.30948C0.588158 11.2474 0.1947 13.2958 0.155486 15.3661C0.036095 18.0355 0 18.8809 0 25.65C0 32.419 -2.06869e-08 33.2839 0.155486 35.9338C0.197135 38.0072 0.588627 40.0529 1.31886 41.996C1.96268 43.653 2.94562 45.1576 4.2049 46.4139C5.46417 47.6701 6.97208 48.6503 8.63227 49.2917C10.5687 50.049 12.6204 50.4709 14.699 50.5391C17.3728 50.6583 18.2197 50.6943 25 50.6943C31.7803 50.6943 32.6494 50.6943 35.301 50.5391C37.3755 50.4983 39.4279 50.1056 41.3705 49.3777C43.03 48.7348 44.5372 47.7538 45.7959 46.4972C47.0546 45.2406 48.0372 43.736 48.6811 42.0792C49.4114 40.1388 49.8029 38.0932 49.8445 36.017C49.9639 33.3504 50 32.505 50 25.7331C49.9944 18.9641 49.9944 18.1048 49.839 15.4521ZM24.9806 38.4507C17.8893 38.4507 12.1446 32.7156 12.1446 25.6361C12.1446 18.5566 17.8893 12.8215 24.9806 12.8215C28.3849 12.8215 31.6498 14.1716 34.057 16.5748C36.4642 18.978 37.8165 22.2375 37.8165 25.6361C37.8165 29.0348 36.4642 32.2942 34.057 34.6974C31.6498 37.1006 28.3849 38.4507 24.9806 38.4507ZM38.3274 15.3356C36.6698 15.3356 35.3343 13.9996 35.3343 12.3475C35.3343 11.9553 35.4117 11.5669 35.562 11.2045C35.7124 10.8422 35.9328 10.5129 36.2106 10.2356C36.4884 9.95822 36.8182 9.73821 37.1811 9.58812C37.5441 9.43802 37.9331 9.36076 38.326 9.36076C38.7189 9.36076 39.1079 9.43802 39.4709 9.58812C39.8339 9.73821 40.1637 9.95822 40.4415 10.2356C40.7193 10.5129 40.9397 10.8422 41.09 11.2045C41.2404 11.5669 41.3177 11.9553 41.3177 12.3475C41.3177 13.9996 39.9795 15.3356 38.3274 15.3356Z" fill="#474E57"/>
<path d="M24.9805 33.9602C29.5855 33.9602 33.3185 30.2334 33.3185 25.6361C33.3185 21.0388 29.5855 17.312 24.9805 17.312C20.3756 17.312 16.6426 21.0388 16.6426 25.6361C16.6426 30.2334 20.3756 33.9602 24.9805 33.9602Z" fill="#474E57"/>
</svg>
