<svg width="42" height="42" viewBox="0 0 42 42" fill="none" xmlns="http://www.w3.org/2000/svg">
<path d="M39.0756 34.6931L29.7227 25.3402C31.029 23.1971 31.7209 20.7362 31.723 18.2264C31.723 10.6218 25.5647 4.46356 17.9653 4.46094C10.366 4.46094 4.20508 10.6205 4.20508 18.2225C4.20508 25.8219 10.3646 31.9775 17.9653 31.9775C20.5733 31.9775 23.0053 31.2399 25.0817 29.9799L34.4372 39.3341L39.0756 34.6918V34.6931ZM9.45245 18.2238C9.45592 15.9674 10.3537 13.8043 11.9492 12.2086C13.5446 10.6129 15.7076 9.71476 17.964 9.71094C20.2203 9.71406 22.3833 10.6119 23.9787 12.2074C25.574 13.803 26.4715 15.9662 26.4743 18.2225C26.4708 20.4783 25.5732 22.6407 23.9783 24.2359C22.3834 25.8311 20.2211 26.7289 17.9653 26.7328C15.7093 26.7286 13.5469 25.8305 11.9518 24.2351C10.3567 22.6397 9.45889 20.4772 9.45508 18.2212L9.45245 18.2238Z" fill="#474E57"/>
</svg>