<svg width="50" height="50" viewBox="0 0 50 50" fill="none" xmlns="http://www.w3.org/2000/svg">
<path d="M12.5271 28.1651H14.5548V38.1923H16.4991V28.1651H18.5268V26.4707H12.5271V28.1651Z" fill="#474E57"/>
<path d="M22.7765 36.1093C22.4432 36.4982 21.3044 37.2759 21.3044 36.1649V29.5264H19.5823V36.776C19.5823 38.9703 21.7766 38.387 22.8043 37.2482V38.1926H24.5264V29.5264H22.8043V36.1093H22.7765Z" fill="#474E57"/>
<path d="M29.1928 29.4705C28.1929 29.4705 27.554 30.2204 27.554 30.2204V26.4429H25.8041V38.1922H27.554V37.5256C27.554 37.5256 28.1373 38.3033 29.1928 38.3033C30.1095 38.3033 30.8039 37.4978 30.8039 36.3868V31.5815C30.8039 30.276 30.1928 29.4705 29.1928 29.4705ZM28.9984 36.1646C28.9984 36.8034 28.554 37.1089 27.9707 36.859C27.8132 36.7853 27.6716 36.6815 27.554 36.5534V31.1648C27.6651 31.0537 27.804 30.9704 27.9151 30.8871C28.5262 30.5815 28.9984 31.0537 28.9984 31.6926V36.1646Z" fill="#474E57"/>
<path d="M35.4148 35.7203C35.4148 36.3869 35.0537 36.8314 34.637 36.8591C34.1926 36.8869 33.7482 36.5258 33.7482 35.7203V34.0815H37.0536V31.8594C37.0621 31.5211 37.0025 31.1844 36.8785 30.8695C36.7544 30.5546 36.5684 30.2678 36.3314 30.0262C35.8536 29.5903 35.2282 29.3521 34.5815 29.3595C33.9704 29.3595 33.3316 29.554 32.8316 29.9428C32.3038 30.3595 31.9705 30.9983 31.9705 31.8594V35.7481C31.9705 36.5258 32.2205 37.1369 32.6094 37.5813C33.0816 38.0813 33.7204 38.359 34.3871 38.3868C35.1926 38.4146 36.0536 38.0813 36.5536 37.3869C36.8591 36.9702 37.0536 36.4147 37.0536 35.7481V35.3037H35.4148V35.7203ZM33.7482 31.8594C33.7482 31.3872 34.026 30.8317 34.5537 30.8317C35.0815 30.8317 35.4148 31.3317 35.4148 31.8594V32.7482H33.7482V31.8594Z" fill="#474E57"/>
<path d="M24.9986 3.86112e-08C21.7156 0.000182371 18.4647 0.647007 15.4316 1.90354C12.3986 3.16008 9.64268 5.00172 7.32135 7.32331C5.00001 9.64491 3.15868 12.401 1.90248 15.4342C0.646281 18.4674 -0.000182343 21.7183 3.85795e-08 25.0014C0.00018242 28.2844 0.647007 31.5353 1.90354 34.5684C3.16008 37.6014 5.00172 40.3573 7.32331 42.6787C9.64491 45 12.401 46.8413 15.4342 48.0975C18.4674 49.3537 21.7183 50.0002 25.0014 50C31.6318 49.9996 37.9905 47.3654 42.6786 42.6767C47.3668 37.988 50.0004 31.629 50 24.9986C49.9996 18.3682 47.3654 12.0095 42.6767 7.32135C37.988 2.6332 31.629 -0.000368198 24.9986 3.86112e-08ZM29.3873 9.36059H31.6094V16.8046C31.6094 17.2768 31.8316 17.2768 31.9149 17.2768C32.2482 17.2768 32.7482 16.9157 32.9982 16.6657V9.33282H35.2203V19.1656H32.9982V18.3045C32.6926 18.5823 32.3871 18.8045 32.0816 18.9712C31.6649 19.1934 31.276 19.2767 30.8872 19.2767C30.6743 19.2869 30.4617 19.2499 30.2648 19.1682C30.068 19.0866 29.8916 18.9624 29.7483 18.8045C29.4984 18.499 29.3873 18.0268 29.3873 17.4435V9.36059ZM22.3043 11.9438C22.3043 10.4161 23.5542 9.16616 25.0819 9.16616C26.6096 9.16616 27.8596 10.4161 27.8596 11.9438V16.6657C27.8596 18.1934 26.6096 19.4434 25.0819 19.4434C23.5542 19.4434 22.3043 18.1934 22.3043 16.6657V11.9438ZM16.5269 5.97189L17.8601 10.8605L19.2212 5.97189H21.7488L19.1378 13.6937V19.1656H16.6657V13.6937L13.9992 5.97189H16.5269ZM38.4701 40.8033C37.0535 42.1921 25.0542 42.2199 25.0542 42.2199C25.0542 42.2199 13.0826 42.1921 11.6382 40.8033C10.2217 39.4145 10.2217 32.4982 10.2217 32.4426C10.2217 32.4149 10.2217 25.4986 11.6382 24.082C13.0548 22.6932 25.0542 22.6654 25.0542 22.6654C25.0542 22.6654 37.0257 22.6932 38.4701 24.082C39.8867 25.4708 39.9144 32.3871 39.9144 32.4426C39.9144 32.4426 39.9144 39.3867 38.4701 40.8033Z" fill="#474E57"/>
<path d="M25.0264 17.638C25.4986 17.638 25.7208 17.3602 25.7486 16.9158V11.6383C25.7486 11.2772 25.3875 10.9717 25.0542 10.9717C24.7209 10.9717 24.3598 11.2494 24.3598 11.6383V16.9158C24.3598 17.3324 24.5542 17.6102 25.0264 17.638Z" fill="#474E57"/>
</svg>
